<svg width="50" height="50" viewBox="0 0 50 50" fill="none" xmlns="http://www.w3.org/2000/svg">
<rect width="50" height="50" rx="25" fill="white"/>
<path d="M19.1778 24.8181C19.1778 21.7026 21.7026 19.1764 24.8181 19.1764C27.9335 19.1764 30.4597 21.7026 30.4597 24.8181C30.4597 27.9335 27.9335 30.4597 24.8181 30.4597C21.7026 30.4597 19.1778 27.9335 19.1778 24.8181ZM16.128 24.8181C16.128 29.6176 20.0185 33.5081 24.8181 33.5081C29.6176 33.5081 33.5081 29.6176 33.5081 24.8181C33.5081 20.0185 29.6176 16.128 24.8181 16.128C20.0185 16.128 16.128 20.0183 16.128 24.8181ZM31.8214 15.7835C31.8212 16.1851 31.9402 16.5778 32.1632 16.9119C32.3862 17.2459 32.7033 17.5063 33.0743 17.6602C33.4453 17.8141 33.8537 17.8544 34.2476 17.7762C34.6416 17.698 35.0035 17.5048 35.2877 17.2209C35.5718 16.937 35.7654 16.5752 35.8439 16.1813C35.9224 15.7874 35.8823 15.379 35.7288 15.0079C35.5752 14.6367 35.3151 14.3194 34.9812 14.0962C34.6473 13.8729 34.2547 13.7536 33.853 13.7535C33.3147 13.7537 32.7976 13.9676 32.4168 14.3483C32.036 14.7289 31.8219 15.2451 31.8214 15.7835ZM17.9809 38.5935C16.331 38.5184 15.4342 38.2435 14.8382 38.0114C14.0481 37.7038 13.4843 37.3374 12.8916 36.7455C12.2988 36.1536 11.9319 35.5903 11.6257 34.8002C11.3934 34.2045 11.1185 33.3074 11.0435 31.6575C10.9615 29.8736 10.9451 29.3377 10.9451 24.8183C10.9451 20.2989 10.9628 19.7646 11.0435 17.9792C11.1187 16.3292 11.3955 15.4339 11.6257 14.8364C11.9333 14.0463 12.2997 13.4825 12.8916 12.8898C13.4835 12.2971 14.0467 11.9302 14.8382 11.6239C15.4339 11.3916 16.331 11.1168 17.9809 11.0418C19.7648 10.9597 20.3007 10.9433 24.8181 10.9433C29.3354 10.9433 29.8718 10.9608 31.6572 11.042C33.3072 11.1172 34.2025 11.394 34.7999 11.6242C35.5901 11.9305 36.1538 12.2982 36.7466 12.8901C37.3393 13.482 37.7048 14.0466 38.0124 14.8367C38.2448 15.4324 38.5196 16.3295 38.5946 17.9795C38.6767 19.7648 38.693 20.2992 38.693 24.8186C38.693 29.338 38.6767 29.8724 38.5946 31.6577C38.5195 33.3077 38.2433 34.2045 38.0124 34.8005C37.7048 35.5906 37.3385 36.1544 36.7466 36.7457C36.1546 37.3371 35.5901 37.704 34.7999 38.0116C34.2042 38.244 33.3072 38.5188 31.6572 38.5938C29.8733 38.6758 29.3374 38.6922 24.8181 38.6922C20.2987 38.6922 19.7643 38.6756 17.9809 38.5935ZM17.8408 7.99702C16.0392 8.07907 14.8081 8.36473 13.733 8.78308C12.6203 9.21511 11.677 9.7947 10.7351 10.7351C9.79321 11.6755 9.21511 12.6189 8.78308 13.733C8.36473 14.8088 8.07907 16.0392 7.99702 17.8408C7.91362 19.6453 7.89453 20.2222 7.89453 24.8181C7.89453 29.4139 7.91362 29.9908 7.99702 31.7953C8.07907 33.597 8.36473 34.8273 8.78308 35.9031C9.21511 37.0159 9.79335 37.961 10.7351 38.901C11.6769 39.841 12.6189 40.4198 13.733 40.853C14.8102 41.2714 16.0392 41.557 17.8408 41.6391C19.6462 41.7211 20.2222 41.7416 24.8181 41.7416C29.4139 41.7416 29.9908 41.7225 31.7953 41.6391C33.597 41.557 34.8273 41.2714 35.9031 40.853C37.0158 40.4198 37.9591 39.8414 38.901 38.901C39.8429 37.9606 40.4198 37.0159 40.853 35.9031C41.2714 34.8273 41.5584 33.5969 41.6391 31.7953C41.7211 29.9895 41.7402 29.4139 41.7402 24.8181C41.7402 20.2222 41.7211 19.6453 41.6391 17.8408C41.557 16.0391 41.2714 14.8081 40.853 13.733C40.4198 12.6203 39.8414 11.677 38.901 10.7351C37.9606 9.79322 37.0158 9.21511 35.9044 8.78308C34.8273 8.36473 33.5969 8.07771 31.7966 7.99702C29.9919 7.91457 29.4153 7.89453 24.8201 7.89453C20.2249 7.89453 19.6462 7.91362 17.8408 7.99702Z" fill="black"/>
</svg>
