<svg width="50" height="50" viewBox="0 0 50 50" fill="none" xmlns="http://www.w3.org/2000/svg">
<rect width="50" height="50" rx="25" fill="white"/>
<g clip-path="url(#clip0_210_5231)">
<path d="M10.4167 14.3074C10.4167 13.369 10.7451 12.5948 11.402 11.9848C12.0589 11.3748 12.9129 11.0698 13.964 11.0698C14.9962 11.0698 15.8314 11.3701 16.4696 11.9707C17.1265 12.5901 17.4549 13.3971 17.4549 14.3919C17.4549 15.2928 17.1359 16.0435 16.4977 16.6441C15.8408 17.2635 14.9775 17.5732 13.9076 17.5732H13.8795C12.8472 17.5732 12.012 17.2635 11.3739 16.6441C10.7357 16.0248 10.4167 15.2459 10.4167 14.3074ZM10.7826 38.9414V20.1351H17.0326V38.9414H10.7826ZM20.4955 38.9414H26.7455V28.4403C26.7455 27.7834 26.8206 27.2766 26.9707 26.92C27.2335 26.2819 27.6323 25.7423 28.1672 25.3012C28.7021 24.8602 29.3731 24.6396 30.1802 24.6396C32.2823 24.6396 33.3333 26.0567 33.3333 28.8908V38.9414H39.5833V28.1588C39.5833 25.381 38.9264 23.2742 37.6126 21.8384C36.2988 20.4026 34.5627 19.6847 32.4043 19.6847C29.9831 19.6847 28.0968 20.7264 26.7455 22.8097V22.866H26.7173L26.7455 22.8097V20.1351H20.4955C20.533 20.7357 20.5518 22.6032 20.5518 25.7376C20.5518 28.872 20.533 33.2733 20.4955 38.9414Z" fill="black"/>
</g>
<defs>
<clipPath id="clip0_210_5231">
<rect x="10.4167" y="10.4165" width="29.1667" height="29.1667" fill="white"/>
</clipPath>
</defs>
</svg>
