<svg width="50" height="50" viewBox="0 0 50 50" fill="none" xmlns="http://www.w3.org/2000/svg">
<g clip-path="url(#clip0_210_5233)">
<path d="M50 0H0V50H50V0Z" fill="white"/>
<path d="M13.5574 17.8959C13.5947 17.5248 13.4543 17.1581 13.1793 16.9083L10.3782 13.5079V13H19.0756L25.7983 27.8571L31.7087 13H40V13.5079L37.605 15.8219C37.3986 15.9805 37.2961 16.2411 37.3389 16.4991V33.5009C37.2961 33.7589 37.3986 34.0195 37.605 34.1781L39.944 36.4921V37H28.1793V36.4921L30.6022 34.1217C30.8403 33.8818 30.8403 33.8113 30.8403 33.4444V19.7019L24.1036 36.9436H23.1933L15.3501 19.7019V31.2575C15.2847 31.7433 15.4449 32.2324 15.7843 32.5838L18.9356 36.4356V36.9436H10V36.4356L13.1513 32.5838C13.4882 32.2319 13.639 31.7395 13.5574 31.2575V17.8959Z" fill="black"/>
</g>
<defs>
<clipPath id="clip0_210_5233">
<rect width="50" height="50" rx="25" fill="white"/>
</clipPath>
</defs>
</svg>
